<?xml version="1.0" encoding="utf-8"?>
<!-- Svg Vector Icons : http://www.onlinewebfonts.com/icon -->
<!DOCTYPE svg PUBLIC "-//W3C//DTD SVG 1.1//EN" "http://www.w3.org/Graphics/SVG/1.1/DTD/svg11.dtd">
<svg version="1.1" xmlns="http://www.w3.org/2000/svg" xmlns:xlink="http://www.w3.org/1999/xlink" x="0px" y="0px" viewBox="0 0 1000 1000" enable-background="new 0 0 1000 1000" xml:space="preserve">
<defs>
<linearGradient id="logo-gradient">
    <stop offset="5%" stop-color="#08519b" />
    <stop offset="95%" stop-color="#43cea2" />
</linearGradient>
</defs>
<g><g  transform="translate(0.000000,511.000000) scale(0.100000,-0.100000)"><path fill="url(#logo-gradient)" d="M2816.3,4080.4c-39-28.2-36.8-43.3,34.7-346.8l75.8-318.6l-143-80.2c-437.8-244.9-784.5-507.1-1150.8-873.4c-426.9-424.8-723.8-836.5-988.3-1365.3C35.8-126.2-66.1-1526.2,356.5-2826.6c82.4-251.4,192.9-520.1,214.6-520.1c8.7,0,43.3,41.2,75.8,93.2c214.6,327.3,704.3,756.4,1408.7,1233.2c132.2,88.8,255.7,171.2,277.4,182c36.8,21.7,32.5,41.2-56.3,303.4C2010.1-756.9,1893.1-85,1893.1,673.5c0,589.5,60.7,1007.8,203.7,1434.7c106.2,307.7,171.2,446.4,327.3,678.3c117,175.5,357.6,448.6,357.6,407.4c0-8.7-47.7-84.5-106.2-169c-292.6-424.8-450.8-1016.4-472.5-1770.6c-30.3-1059.8,195-2097.9,730.4-3361.3c28.2-62.9,54.2-108.4,60.7-104c4.3,6.5,32.5,73.7,58.5,151.7c156,444.3,732.5,1025.1,1434.7,1443.4c123.5,73.7,227.6,132.2,231.9,127.9c4.3-4.3,307.7-652.3,674-1439c366.3-786.7,700-1495.4,739-1575.6c136.5-273.1,299.1-383.6,563.5-385.8c359.8,0,674,203.7,775.9,505c52,151.7,43.3,492-13,492c-10.8,0-62.9-28.2-112.7-62.9c-91-62.8-93.2-69.3-106.2-205.9c-15.2-158.2-47.7-236.2-138.7-320.7c-82.3-78-166.9-108.4-312.1-108.4c-130,0-218.9,34.7-294.7,117c-60.7,65-1484.5,3120.8-1462.9,3138.1c28.2,26,433.4,197.2,596,251.4C5846.1-7,6221,88.3,6476.8,133.8c370.6,65,986.1,52,1187.6-26c82.3-30.3-327.2,704.3-641.5,1150.8C6093.2,2585,4875.2,3430.2,3735.2,3540.7L3551,3558l149.5,17.3c82.4,10.8,238.4,13,346.8,6.5c1220.1-73.7,2667.8-1083.6,3666.9-2553l171.2-249.2l368.4,104c583,166.9,1194.1,277.4,1540.9,277.4c145.2,0,147.4-15.2-39,294.7c-275.2,463.8-715.2,979.6-1124.8,1322c-455.1,379.3-1103.1,739-1668.8,927.6c-570,190.7-1068.4,273.1-1666.6,273.1c-615.5,0-1118.3-84.5-1690.4-283.9c-173.4-60.7-329.4-114.9-348.9-119.2c-23.8-8.7-84.5,65-214.6,260.1c-97.5,149.5-182,273.1-182,273.1C2857.5,4108.5,2838,4095.5,2816.3,4080.4z"/></g></g>
</svg>